PathFileType	4	(X/Y/Z)	/Users/itak/Documents/Research/Walk-IL/dataset/trc/00548_00009.trc
DataRate	CameraRate	NumFrames	NumMarkers	Units	OrigDataRate	OrigDataStartFrame	OrigNumFrames
100.000000	100.000000	4	53	mm	100.000000	285	457
Frame#	Time	RPSI			LPSI			L3			STRN			T10			C7			CLAV			RBAK			LBAK			LSHO			LUPA			LAEL			LAOL			LWTS			LWPS			LFRA			LHPS			LHTS			RSHO			RUPA			RAEL			RAOL			RWTS			RWPS			RFRA			RIFD			RHTS			RHPS			RBHD			LFHD			RFHD			LBHD			LHIP			RHIP			RASI			LASI			LKNE			LTHI			LANK			LTIP			LTOE			LMT1			LMT5			LHEE			RKNE			RTHI			RANK			RTIP			RTOE			RMT1			RMT5			RHEE			LIFD			
		X1	Y1	Z1	X2	Y2	Z2	X3	Y3	Z3	X4	Y4	Z4	X5	Y5	Z5	X6	Y6	Z6	X7	Y7	Z7	X8	Y8	Z8	X9	Y9	Z9	X10	Y10	Z10	X11	Y11	Z11	X12	Y12	Z12	X13	Y13	Z13	X14	Y14	Z14	X15	Y15	Z15	X16	Y16	Z16	X17	Y17	Z17	X18	Y18	Z18	X19	Y19	Z19	X20	Y20	Z20	X21	Y21	Z21	X22	Y22	Z22	X23	Y23	Z23	X24	Y24	Z24	X25	Y25	Z25	X26	Y26	Z26	X27	Y27	Z27	X28	Y28	Z28	X29	Y29	Z29	X30	Y30	Z30	X31	Y31	Z31	X32	Y32	Z32	X33	Y33	Z33	X34	Y34	Z34	X35	Y35	Z35	X36	Y36	Z36	X37	Y37	Z37	X38	Y38	Z38	X39	Y39	Z39	X40	Y40	Z40	X41	Y41	Z41	X42	Y42	Z42	X43	Y43	Z43	X44	Y44	Z44	X45	Y45	Z45	X46	Y46	Z46	X47	Y47	Z47	X48	Y48	Z48	X49	Y49	Z49	X50	Y50	Z50	X51	Y51	Z51	X52	Y52	Z52	X53	Y53	Z53	

286	2.85	394.9767761230469	972.8632202148438	297.9985656738281	398.4065246582031	986.3807373046875	166.1850128173828	400.9862060546875	1076.151611328125	224.5348968505859	641.00927734375	1261.058349609375	233.2748413085938	397.9228515625	1200.931030273438	218.17041015625	451.780517578125	1474.187622070312	234.0924224853516	624.7141723632812	1372.921020507812	236.4192199707031	372.7043151855469	1349.360961914062	311.7490844726562	422.624267578125	1423.548217773438	138.8956756591797	527.7706298828125	1450.357177734375	68.60448455810547	539.8670043945312	1327.930053710938	-14.71851539611816	614.5975341796875	1122.587646484375	-35.74285125732422	524.7374267578125	1082.571655273438	-6.931879997253418	793.3257446289062	957.7564086914062	54.73234558105469	784.2852783203125	916.0011596679688	-21.24554824829102	671.7266235351562	1057.517822265625	-29.74559211730957	816.425537109375	867.3881225585938	-2.571086406707764	848.459716796875	898.1160888671875	48.75088500976562	498.5167541503906	1436.205688476562	392.923095703125	469.1817016601562	1372.556884765625	456.2599487304688	434.2813415527344	1087.736572265625	502.9326782226562	379.3190002441406	1076.0224609375	471.7925109863281	551.7427368164062	856.523193359375	474.7426452636719	500.6105346679688	840.3634643554688	537.1544799804688	438.5076293945312	1031.822509765625	511.7278442382812	548.51123046875	682.733642578125	481.41748046875	569.89794921875	763.1852416992188	490.8337707519531	510.2474060058594	764.6150512695312	534.7031860351562	530.4635620117188	1650.693359375	311.7177734375	688.7979736328125	1680.649780273438	180.0675354003906	668.6975708007812	1673.756958007812	322.9334411621094	560.429443359375	1656.755126953125	149.3685607910156	518.97412109375	913.9397583007812	29.79166603088379	524.8426513671875	905.2726440429688	413.5014343261719	607.7114868164062	939.8750610351562	355.4669189453125	602.9539184570312	933.893798828125	79.42141723632812	451.8643188476562	477.1290588378906	101.2074356079102	491.4534606933594	637.48779296875	62.81244277954102	241.7119903564453	43.62075805664062	129.2055206298828	318.8739929199219	255.1001586914062	107.2597885131836	451.8625183105469	39.55930328369141	188.8517456054688	378.4381408691406	46.99855804443359	220.6739044189453	362.8786010742188	36.6031379699707	113.4241943359375	173.2987365722656	62.1968994140625	178.1562957763672	710.6580810546875	503.0636291503906	380.3612060546875	599.1021118164062	768.9259643554688	423.133056640625	828.8071899414062	36.26901626586914	351.5069580078125	768.3245239257812	371.9724731445312	370.4812316894531	1023.102905273438	137.1828460693359	355.1335754394531	975.50634765625	113.4330673217773	302.1028442382812	942.5750732421875	84.65373992919922	395.958984375	789.106689453125	19.72845458984375	284.9644165039062	875.517822265625	808.136962890625	68.83558654785156	
287	2.86	405.9606018066406	971.616943359375	300.1544799804688	408.988525390625	985.0802612304688	168.2857818603516	411.4526062011719	1074.556884765625	226.4104156494141	651.0067749023438	1260.021606445312	234.7191314697266	408.0830993652344	1199.238525390625	219.8737640380859	461.084716796875	1472.693481445312	235.7184753417969	634.3342895507812	1371.83349609375	237.9875640869141	382.3592834472656	1347.436889648438	313.1744689941406	432.0637817382812	1421.984985351562	140.5561981201172	537.1450805664062	1449.023193359375	70.14382934570312	549.3895263671875	1326.470947265625	-13.10702419281006	624.2235717773438	1120.935180664062	-33.80471420288086	534.2999267578125	1081.208862304688	-4.893418312072754	802.053466796875	954.8463745117188	56.37968444824219	792.7648315429688	913.32421875	-19.68861389160156	681.0578002929688	1055.511840820312	-27.86895370483398	824.7554321289062	864.486328125	-1.174791932106018	856.8742065429688	894.962158203125	50.27419281005859	507.8356323242188	1434.68115234375	394.5947570800781	478.4184875488281	1370.90576171875	457.8319702148438	443.7379150390625	1085.95849609375	504.1607360839844	388.9036254882812	1074.317504882812	472.827392578125	560.7481079101562	854.4613037109375	476.2881469726562	509.4136657714844	838.4545288085938	538.5001220703125	447.88232421875	1030.0185546875	512.9347534179688	556.985107421875	680.7033081054688	482.9588928222656	578.7017211914062	761.1320190429688	492.4216613769531	518.903076171875	762.66455078125	536.1023559570312	539.6053466796875	1649.482421875	313.4371032714844	697.96484375	1679.6630859375	181.8714904785156	677.7681274414062	1672.676025390625	324.7193603515625	569.639892578125	1655.679931640625	151.0702819824219	528.8106689453125	912.6935424804688	31.32647323608398	536.3836059570312	904.0527954101562	414.8173217773438	618.9749755859375	938.7413940429688	356.4941101074219	613.1038208007812	932.4727783203125	80.33097839355469	459.6480407714844	476.2116088867188	101.8763580322266	500.2095642089844	636.4998168945312	63.84789657592773	242.3211212158203	45.4574089050293	128.8668060302734	323.0955505371094	256.1279907226562	107.4824981689453	452.0185852050781	39.38774108886719	188.8447265625	378.8026123046875	47.2607421875	220.4337005615234	363.0391540527344	36.61202621459961	113.3891830444336	173.9453125	65.31160736083984	177.7880401611328	722.0914306640625	501.9189147949219	379.8623657226562	611.3147583007812	767.7269287109375	423.7344360351562	834.6468505859375	35.15023803710938	350.0758056640625	778.8416748046875	370.1809387207031	369.260986328125	1030.668090820312	131.9288177490234	350.7463073730469	982.1445922851562	108.6442413330078	298.2688293457031	949.8696899414062	80.82262420654297	392.6115112304688	793.5848999023438	19.25516510009766	284.1294555664062	883.4683837890625	804.8182983398438	70.19574737548828	
288	2.87	417.0968017578125	970.61767578125	302.3973388671875	419.7599487304688	983.9237060546875	170.4420318603516	422.0982360839844	1073.096923828125	228.3380432128906	661.11962890625	1259.20654296875	236.2378082275391	418.417724609375	1197.683837890625	221.6380615234375	470.4262390136719	1471.362182617188	237.4178619384766	644.0224609375	1370.955322265625	239.6271362304688	392.117431640625	1345.638305664062	314.6416931152344	441.5562438964844	1420.581176757812	142.2952575683594	546.5436401367188	1447.8603515625	71.7618408203125	558.9561157226562	1325.171752929688	-11.44738101959229	633.8638305664062	1119.404907226562	-31.80739212036133	543.873046875	1080.021484375	-2.7264084815979	810.6209716796875	951.7666625976562	57.8890380859375	800.9561767578125	910.5117797851562	-18.27164459228516	690.322509765625	1053.537963867188	-25.9887866973877	832.7891235351562	861.4367065429688	-0.006890187971293926	865.059326171875	891.599853515625	51.57744979858398	517.2102661132812	1433.331176757812	396.3487854003906	487.7200012207031	1369.410278320312	459.4697875976562	453.3813781738281	1084.31494140625	505.4459228515625	398.6728515625	1072.754272460938	473.9273681640625	569.8535766601562	852.50732421875	477.875732421875	518.351318359375	836.6742553710938	539.898193359375	457.4479064941406	1028.347290039062	514.2039184570312	565.466552734375	678.7584228515625	484.5286254882812	587.62939453125	759.1979370117188	494.0655212402344	527.6630859375	760.8384399414062	537.5509643554688	548.8001098632812	1648.499633789062	315.2331237792969	707.1882934570312	1678.861206054688	183.7379455566406	686.91162109375	1671.777465820312	326.5763549804688	578.89990234375	1654.81591796875	152.8429260253906	538.8433837890625	911.5043334960938	32.95580673217773	548.1668090820312	903.1480102539062	416.2681274414062	630.4324951171875	937.8654174804688	357.5668640136719	623.4367065429688	931.1188354492188	81.26468658447266	467.7965698242188	475.3091430664062	102.6425170898438	509.2849426269531	635.5548095703125	64.96183013916016	243.1366424560547	47.66038513183594	128.3442077636719	327.5758972167969	257.306640625	107.7108688354492	452.1838073730469	39.21932601928711	188.84912109375	379.2132568359375	47.60556030273438	220.1756286621094	363.2465515136719	36.62963485717773	113.3634796142578	174.7627258300781	68.81221771240234	177.333984375	733.6207885742188	500.9866943359375	379.4674377441406	623.7536010742188	766.7854614257812	424.2839965820312	839.1222534179688	34.34042739868164	348.7828369140625	789.2345581054688	368.5076293945312	368.0416259765625	1037.546508789062	125.1813507080078	346.2365417480469	987.8997192382812	102.724250793457	294.3599853515625	956.1637573242188	76.17793273925781	389.2073669433594	796.6054077148438	19.33779907226562	283.4844360351562	891.1177368164062	801.2554321289062	71.27969360351562	
289	2.88	428.3499450683594	969.923828125	304.6902770996094	430.71044921875	982.9457397460938	172.6141662597656	432.9171752929688	1071.817749023438	230.2820281982422	671.3378295898438	1258.6455078125	237.8296813964844	428.9143981933594	1196.32275390625	223.4386291503906	479.8084411621094	1470.232543945312	239.183837890625	653.7733154296875	1370.32421875	241.3373107910156	401.9753112792969	1344.01611328125	316.1471252441406	451.1062927246094	1419.380981445312	144.1011962890625	555.9735107421875	1446.914306640625	73.45429992675781	568.5632934570312	1324.072998046875	-9.734650611877441	643.5059204101562	1118.036743164062	-29.74573135375977	553.4442138671875	1079.052490234375	-0.4153778553009033	819.0062255859375	948.5506591796875	59.24507522583008	808.8270263671875	907.5982055664062	-17.00607681274414	699.5009765625	1051.631103515625	-24.10650253295898	840.487548828125	858.2775268554688	0.9175345897674561	872.98193359375	888.0581665039062	52.6409797668457	526.6465454101562	1432.19580078125	398.1822509765625	497.0915832519531	1368.107177734375	461.1660766601562	463.2176818847656	1082.845703125	506.7833557128906	408.6211242675781	1071.371826171875	475.0930786132812	579.077880859375	850.705810546875	479.483154296875	527.4323120117188	835.06494140625	541.34375	467.2015075683594	1026.853637695312	515.5322265625	573.9803466796875	676.9424438476562	486.1136474609375	596.6763916015625	757.431396484375	495.7397155761719	536.5283203125	759.17626953125	539.0410766601562	558.0460815429688	1647.784545898438	317.1039428710938	716.4652709960938	1678.2744140625	185.6677093505859	696.1320190429688	1671.098754882812	328.5010375976562	588.205322265625	1654.199462890625	154.6891021728516	549.0865478515625	910.3870239257812	34.67470550537109	560.1790161132812	902.6640625	417.9018249511719	642.0408325195312	937.320068359375	358.6990356445312	633.9634399414062	929.8569946289062	82.22734069824219	476.3480834960938	474.4302978515625	103.5273284912109	518.7137451171875	634.6661376953125	66.16438293457031	244.1420135498047	50.23447036743164	127.6812210083008	332.3402709960938	258.6707763671875	107.961784362793	452.3663330078125	39.06168365478516	188.8610382080078	379.6872253417969	48.06063079833984	219.9122467041016	363.5167846679688	36.66688537597656	113.3636169433594	175.7991638183594	72.74629211425781	176.8005981445312	745.210205078125	500.3582458496094	379.1789245605469	636.3447265625	766.1820068359375	424.8144836425781	842.622314453125	33.91875076293945	347.7188415527344	799.5574340820312	367.0967102050781	366.880126953125	1043.954956054688	117.2746887207031	341.880615234375	993.0574340820312	96.00706481933594	290.636474609375	961.7095336914062	71.00577545166016	385.9800109863281	798.6676025390625	20.01996612548828	283.0712280273438	898.4275512695312	797.48095703125	72.06479644775391	
